<svg width="45" height="45" viewBox="0 0 45 45" fill="none" xmlns="http://www.w3.org/2000/svg">
<g clip-path="url(#clip0_36_2727)">
<path d="M14.5164 -1.27273L22.2721 12.4844H22.6414L30.4894 -1.27273H44.8005L30.6741 22.3636L45.3544 46H30.6741L22.6414 31.9659H22.2721L14.2394 46H-0.348677L14.1471 22.3636L0.112971 -1.27273H14.5164Z" fill="#FF6B00"/>
<rect x="19" y="32" width="20" height="6" transform="rotate(-90 19 32)" fill="white"/>
<path d="M15.2 36C14.5373 36 14 35.4627 14 34.8V34.2C14 33.5373 14.5373 33 15.2 33H27.8C28.4627 33 29 33.5373 29 34.2V34.8C29 35.4627 28.4627 36 27.8 36H15.2Z" fill="white"/>
<path d="M17.2 40C16.5373 40 16 39.4627 16 38.8V38.2C16 37.5373 16.5373 37 17.2 37H25.8C26.4627 37 27 37.5373 27 38.2V38.8C27 39.4627 26.4627 40 25.8 40H17.2Z" fill="white"/>
<path d="M28.8 8C29.4627 8 30 8.53726 30 9.2V9.8C30 10.4627 29.4627 11 28.8 11L16.2 11C15.5373 11 15 10.4627 15 9.8V9.2C15 8.53726 15.5373 8 16.2 8L28.8 8Z" fill="white"/>
<path d="M26.8 4C27.4627 4 28 4.53726 28 5.2V5.8C28 6.46274 27.4627 7 26.8 7L18.2 7C17.5373 7 17 6.46274 17 5.8V5.2C17 4.53726 17.5373 4 18.2 4L26.8 4Z" fill="white"/>
<rect x="12" y="19.0001" width="20" height="6" fill="white"/>
<path d="M8 15.2001C8 14.5374 8.53726 14.0001 9.2 14.0001H9.8C10.4627 14.0001 11 14.5374 11 15.2001V27.8001C11 28.4628 10.4627 29.0001 9.8 29.0001H9.2C8.53726 29.0001 8 28.4628 8 27.8001V15.2001Z" fill="white"/>
<path d="M4 17.2001C4 16.5374 4.53726 16.0001 5.2 16.0001H5.8C6.46274 16.0001 7 16.5374 7 17.2001V25.8001C7 26.4628 6.46274 27.0001 5.8 27.0001H5.2C4.53726 27.0001 4 26.4628 4 25.8001V17.2001Z" fill="white"/>
<path d="M36 28.8001C36 29.4628 35.4627 30.0001 34.8 30.0001H34.2C33.5373 30.0001 33 29.4628 33 28.8001V16.2001C33 15.5374 33.5373 15.0001 34.2 15.0001H34.8C35.4627 15.0001 36 15.5374 36 16.2001V28.8001Z" fill="white"/>
<path d="M40 26.8001C40 27.4628 39.4627 28.0001 38.8 28.0001H38.2C37.5373 28.0001 37 27.4628 37 26.8001V18.2001C37 17.5374 37.5373 17.0001 38.2 17.0001H38.8C39.4627 17.0001 40 17.5374 40 18.2001V26.8001Z" fill="white"/>
</g>
<defs>
<clipPath id="clip0_36_2727">
<rect width="45" height="45" fill="white"/>
</clipPath>
</defs>
</svg>
